<svg width="280" height="135" viewBox="0 0 280 135" fill="none" xmlns="http://www.w3.org/2000/svg">
<path d="M57.7119 41.0846C60.4059 40.174 63.2796 39.6884 66.261 39.6884C79.3122 39.6884 90.2082 49.0854 92.6987 61.5783L111.198 57.7539C106.959 36.5318 88.448 20.5544 66.261 20.5544C61.1722 20.5544 56.299 21.3922 51.7251 22.9462L57.7119 41.0846Z" fill="#FFCB05"/>
<path d="M35.8839 101.861L48.3963 87.5231C42.8166 82.509 39.2964 75.1881 39.2964 67.0294C39.2964 58.883 42.8166 51.5621 48.3963 46.56L35.8839 32.2096C26.4008 40.7324 20.4141 53.1768 20.4141 67.0294C20.4141 80.8942 26.4008 93.3386 35.8839 101.861" fill="#00A4E0"/>
<path d="M92.6987 72.5171C90.1962 84.9978 79.3122 94.3827 66.273 94.3827C63.2796 94.3827 60.394 93.8971 57.7119 92.9744L51.7251 111.137C56.299 112.679 61.1842 113.517 66.273 113.517C88.4361 113.517 106.935 97.5636 111.198 76.3657L92.6987 72.5171Z" fill="#EF4123"/>
<path d="M127.374 88.118C126.763 87.1225 125.949 85.532 125.446 84.3544C122.512 77.4584 122.381 70.3196 124.847 63.4722C127.565 55.957 132.762 50.2144 139.479 47.2763C147.92 43.5977 157.248 44.314 165.342 49.1824C170.479 52.1691 174.118 56.7826 176.884 63.3143C177.232 64.1521 177.543 65.0383 177.854 65.8032L127.374 88.118ZM144.232 58.3609C138.234 60.9712 135.145 66.6774 135.791 73.3548L161.175 62.2702C156.805 57.074 151.129 55.35 144.232 58.3609V58.3609ZM164.336 82.4726C164.324 82.4726 164.324 82.4847 164.324 82.4847L163.797 82.1205C162.277 84.6093 159.918 86.6369 156.936 87.9481C151.261 90.4491 146.005 89.8056 142.221 86.4426L141.874 86.9768C141.874 86.9768 141.874 86.9647 141.862 86.9647L135.42 96.738C137.024 97.8671 138.737 98.8141 140.533 99.579C147.645 102.578 154.925 102.432 162.097 99.2754C167.282 96.993 171.353 93.5207 174.13 89.1136L164.336 82.4726ZM195.491 32.9016V87.2196L203.825 90.6433L199.095 101.837L189.9 97.9521C187.84 97.0415 186.427 95.6575 185.374 94.0913C184.356 92.5009 183.602 90.3034 183.602 87.3653V32.9016H195.491ZM217.068 73.3912C217.068 68.7656 219.091 64.6134 222.276 61.7967L213.727 52.1327C207.932 57.3289 204.28 64.9169 204.28 73.3669C204.268 81.8291 207.92 89.4292 213.703 94.6255L222.24 84.9614C219.067 82.1326 217.068 78.0047 217.068 73.3912V73.3912ZM232.25 88.7979C230.574 88.7979 228.945 88.5065 227.437 87.9966L223.354 100.295C226.144 101.242 229.125 101.764 232.238 101.764C245.768 101.776 257.059 92.0395 259.682 79.1095L247.133 76.5114C245.708 83.5409 239.59 88.8101 232.25 88.7979V88.7979ZM232.286 45.0181C229.185 45.0181 226.204 45.5281 223.414 46.4629L227.461 58.7737C228.981 58.2638 230.598 57.9845 232.274 57.9845C239.626 57.9967 245.756 63.2901 247.145 70.3317L259.694 67.7579C257.119 54.8036 245.828 45.0303 232.286 45.0181V45.0181Z" fill="#0D0D0D"/>
</svg>
