<svg width="260" height="114" viewBox="0 0 260 114" fill="none" xmlns="http://www.w3.org/2000/svg">
<g clip-path="url(#clip0_4101_194)">
<path d="M71.3868 0H44.4459C32.5416 0.562841 22.811 5.35745 20.0014 15.2447C18.5364 20.4011 17.7301 26.0642 16.5845 31.4094C10.7607 58.588 5.59663 86.5158 0.0258789 113.152H209.771C225.986 113.152 237.121 109.725 240.129 96.8551C241.527 90.8767 242.866 84.1057 244.203 77.5374C249.416 51.9273 254.634 26.3188 259.974 0H71.3868Z" fill="#822124"/>
<path d="M69.2843 40.2144C70.411 39.4382 71.8623 35.9035 70.2044 34.4318C69.6793 33.966 68.8011 33.8307 67.5759 34.0379C66.4395 34.2298 65.7858 34.6161 65.3419 35.2207C64.6285 36.1928 63.9738 39.1254 65.0791 40.2149C66.1558 41.2752 68.5674 40.7078 69.2843 40.2144V40.2144ZM53.2513 34.4318C52.444 39.6699 51.5347 44.8059 50.6228 49.9393C44.7683 50.0011 38.7909 50.2281 33.1441 49.8077C34.2106 44.7855 34.9755 39.4612 36.0354 34.4318H29.7273C27.4693 47.243 25.4149 60.2588 22.8936 72.8066H29.3333C30.3432 66.3704 31.2882 59.8679 32.6185 53.7506C38.1091 53.6154 44.6897 53.3796 49.9661 53.8823C48.8781 60.2419 47.5637 66.3735 46.5492 72.8066H52.989C55.0587 59.8061 57.2381 46.9169 59.8232 34.4318H53.2513V34.4318ZM144.325 45.4713C139.314 43.4475 135.375 46.8674 133.549 50.071C133.963 48.6458 134.134 46.9766 134.469 45.4713H129.475C128.254 54.9396 126.455 63.8287 124.744 72.8066H130.396C131.188 67.4777 131.53 60.294 133.286 55.1962C134.691 51.1227 138.366 47.6522 143.669 49.5454C143.742 48.0426 144.172 46.8955 144.325 45.4713V45.4713ZM147.478 66.3673C146.957 65.0212 146.823 62.7994 146.953 61.1099C147.245 57.3129 148.629 52.6897 150.765 50.5966C153.712 47.7079 159.529 48.186 164.17 49.8082C164.313 48.2442 164.627 46.849 164.827 45.3401C157.217 44.0971 149.995 44.8707 146.166 48.8886C142.417 52.8219 139.96 61.8621 141.697 67.5502C143.73 74.2063 152.847 74.5681 160.227 72.0187C160.554 70.6808 160.727 69.1892 161.016 67.8135C156.982 69.9082 149.271 70.9971 147.478 66.3673V66.3673ZM210.954 45.6024C205.96 43.1051 201.802 47.2955 200.178 49.8077C200.641 48.5187 200.667 46.7924 201.098 45.4708H196.104C194.758 54.8569 193.135 63.9665 191.242 72.8061H197.025C197.061 69.1831 197.773 66.5031 198.338 62.9505C199.547 55.3636 201.321 47.044 210.167 49.5449C210.459 48.262 210.581 46.8067 210.954 45.6024ZM63.5018 45.4713C63.3487 45.4932 63.3589 45.679 63.3702 45.8652C62.1251 55.1774 60.4396 64.0501 58.6393 72.8061H64.2902C65.6481 63.4312 67.2034 54.2548 69.1527 45.4708L63.5018 45.4713V45.4713ZM113.178 44.9457C109.095 45.2605 105.643 46.4352 103.191 49.0198C100.182 52.1892 97.7458 59.1969 98.4597 65.579C99.4782 74.6834 110.814 74.3563 119.881 72.1499C120.035 70.5517 120.422 69.1856 120.669 67.6813C116.934 69.079 110.449 71.0298 106.607 68.6019C103.706 66.7674 103.69 62.1243 104.636 58.088C110.729 57.8941 117.063 57.9308 123.166 58.088C123.552 55.2274 124.66 52.1085 123.691 49.2831C122.413 45.5529 117.836 44.5865 113.178 44.9457ZM118.566 54.9334H105.292C105.713 51.882 108.458 48.5279 112.784 48.3625C116.855 48.2069 119.77 49.8572 118.566 54.9334V54.9334ZM91.7571 45.4713C86.9743 43.6746 81.1453 45.8193 78.6179 47.8594C78.6271 47.9492 78.5577 47.9615 78.4832 47.9681C78.526 47.9319 78.573 47.8956 78.6179 47.8594C78.6175 47.8519 78.6166 47.8444 78.6153 47.837C78.6577 46.9598 78.9664 46.3485 79.0093 45.4713H74.1468C72.1205 58.9524 69.7175 72.0565 67.182 85.0284H72.8328C73.6508 79.9766 74.1907 74.6467 75.3301 69.9153C76.6206 74.8916 85.0474 73.9409 88.6036 72.0182C95.9399 68.0503 101.599 49.1678 91.7571 45.4713V45.4713ZM87.2891 67.6813C84.2657 70.8833 76.8329 70.8354 76.2497 65.4468C75.9961 63.1026 76.8692 60.6445 77.3019 58.2192C77.7382 55.7642 78.053 53.4087 78.4837 51.2538C81.4617 47.6175 90.2125 47.1782 91.1004 53.225C91.8704 58.4748 89.7926 65.0294 87.2891 67.6813V67.6813ZM231.981 33.6435C231.497 37.89 230.849 41.9738 230.01 45.8652C216.149 41.4773 207.648 51.6763 207.801 64.2645C207.831 66.699 208.25 69.1132 209.772 70.8354C212.397 73.8021 219.909 74.513 223.703 72.0177C224.437 71.535 225.187 70.6563 225.674 70.047C226.039 69.5882 226.62 68.3865 226.725 68.7325C226.525 70.0659 226.227 71.3018 226.2 72.8061H231.325C232.314 58.6366 235.367 46.5342 237.634 33.6429H231.982V33.6435H231.981ZM219.365 69.7837C215.561 69.8653 213.67 67.5109 213.582 63.6072C213.431 56.7705 216.43 49.1749 222.519 48.4937C225.355 48.1768 227.407 48.8361 229.485 49.5454C227.577 57.2251 228.266 69.5928 219.365 69.7837V69.7837ZM170.608 45.4713C170.33 47.0327 169.903 48.4457 169.557 49.9393C172.892 49.103 183.276 46.5393 184.276 50.9905C184.609 52.4693 184.036 54.0405 183.619 55.1962C174.23 54.3068 166.577 55.8668 164.563 62.5555C163.215 67.0358 164.714 71.4446 167.586 72.6754C173.117 75.0452 179.845 72.3305 182.174 68.6019C181.932 69.8924 181.703 71.1972 181.78 72.8066H186.642C186.694 68.1498 187.372 64.3803 188.088 60.1899C188.698 56.6215 189.847 53.0888 189.665 49.9393C189.247 42.7265 177.297 45.2779 170.608 45.4713V45.4713ZM179.808 67.5497C176.896 70.4006 168.721 71.2104 169.557 64.3956C170.251 58.7356 176.414 57.5328 183.093 58.3498C182.597 61.4462 182.027 65.3774 179.808 67.5497V67.5497Z" fill="white"/>
</g>
<defs>
<clipPath id="clip0_4101_194">
<rect width="260" height="113.152" fill="white"/>
</clipPath>
</defs>
</svg>
